<?xml version="1.0" standalone="no"?>
<!DOCTYPE svg PUBLIC "-//W3C//DTD SVG 20010904//EN"
 "http://www.w3.org/TR/2001/REC-SVG-20010904/DTD/svg10.dtd">
<svg version="1.0" xmlns="http://www.w3.org/2000/svg"
 width="512.000000pt" height="512.000000pt" viewBox="0 0 512.000000 512.000000"
 preserveAspectRatio="xMidYMid meet">
<metadata>
Created by potrace 1.11, written by Peter Selinger 2001-2013
</metadata>
<g transform="translate(0.000000,512.000000) scale(0.100000,-0.100000)"
fill="#000000" stroke="none">
<path d="M772 3988 c-16 -16 -15 -51 3 -140 22 -106 93 -245 167 -323 46 -50
56 -65 41 -65 -27 0 -43 -19 -43 -51 0 -64 33 -180 76 -269 40 -81 61 -109
138 -186 94 -93 172 -143 281 -178 l50 -16 1 -192 c0 -160 4 -210 22 -295 62
-288 190 -522 396 -729 248 -247 553 -389 902 -419 101 -9 109 -3 119 97 34
359 190 686 446 934 240 231 521 362 852 395 62 6 118 16 126 22 11 9 12 32 7
107 -22 319 -163 631 -395 872 -208 217 -453 354 -751 421 -93 20 -117 21
-1260 24 -915 3 -1168 1 -1178 -9z m1347 -230 c-58 -39 -140 -107 -213 -180
l-120 -118 -175 0 c-250 0 -336 23 -468 121 -55 41 -130 138 -156 202 l-16 37
621 0 621 0 -94 -62z m985 47 c54 -8 116 -20 137 -26 l39 -12 0 -719 0 -719
-85 -92 c-117 -126 -203 -249 -274 -392 -74 -148 -115 -264 -145 -414 l-24
-116 -33 3 c-59 5 -191 42 -278 77 -155 63 -290 155 -421 287 -423 425 -478
1111 -130 1600 281 394 744 594 1214 523z m-1473 -603 c-22 -43 -54 -120 -71
-170 -18 -51 -38 -92 -44 -92 -22 0 -142 63 -193 101 -55 41 -130 138 -156
202 l-16 37 260 0 259 0 -39 -78z"/>
<path d="M2620 3267 c-76 -24 -150 -129 -150 -212 0 -115 110 -225 225 -225
115 0 225 110 225 225 0 56 -24 110 -70 155 -65 65 -143 84 -230 57z"/>
</g>
</svg>
